<svg xmlns="http://www.w3.org/2000/svg" viewBox="0 0 781.38 113.93"><defs><style>.cls-1{fill:#c0efff;}</style></defs><g id="Livello_2" data-name="Livello 2"><g id="Livello_1-2" data-name="Livello 1"><polygon class="cls-1" points="170.4 79.96 170.22 79.96 158.9 50.23 147.31 50.23 164.65 92.7 175.97 92.7 192.69 50.23 181.81 50.23 170.4 79.96"/><rect class="cls-1" x="198.22" y="50.23" width="10.62" height="42.46"/><path class="cls-1" d="M203.44,29.44a6.54,6.54,0,0,0-4.82,1.91,6.2,6.2,0,0,0,0,8.93,6.53,6.53,0,0,0,4.82,1.9,7,7,0,0,0,4.91-1.81,6.21,6.21,0,0,0,0-9.11A7,7,0,0,0,203.44,29.44Z"/><path class="cls-1" d="M245.22,69.83a22.15,22.15,0,0,0-5.53-2q-3-.66-5.52-1.28a18.27,18.27,0,0,1-4.25-1.5,3,3,0,0,1-1.68-2.83,3.6,3.6,0,0,1,2-3.45,8.91,8.91,0,0,1,4.16-1.07A9.73,9.73,0,0,1,242.75,62l7.07-6.37a13.71,13.71,0,0,0-6.72-5A25,25,0,0,0,228.42,50a16.58,16.58,0,0,0-5.49,2.48,12.92,12.92,0,0,0-3.85,4.29,12.42,12.42,0,0,0-1.46,6.14,10.6,10.6,0,0,0,1.68,6.37,11.63,11.63,0,0,0,4.25,3.59,21.83,21.83,0,0,0,5.53,1.86c2,.38,3.82.79,5.53,1.23a15.08,15.08,0,0,1,4.24,1.73,3.61,3.61,0,0,1,1.69,3.27,3.65,3.65,0,0,1-.67,2.17,5.47,5.47,0,0,1-1.72,1.55,7.72,7.72,0,0,1-2.3.88,11.3,11.3,0,0,1-2.39.27,10.63,10.63,0,0,1-5.71-1.46,20.37,20.37,0,0,1-4.38-3.76l-7.08,6.63a17.27,17.27,0,0,0,7.44,5.13,27.9,27.9,0,0,0,9.11,1.42,31,31,0,0,0,6.54-.71,18.81,18.81,0,0,0,5.89-2.3,12.8,12.8,0,0,0,4.24-4.2,11.86,11.86,0,0,0,1.64-6.41,11.2,11.2,0,0,0-1.68-6.55A12.09,12.09,0,0,0,245.22,69.83Z"/><path class="cls-1" d="M286.64,73.41a15.09,15.09,0,0,1-.53,4.07,9.49,9.49,0,0,1-1.72,3.45,8.54,8.54,0,0,1-3,2.39,10.15,10.15,0,0,1-4.47.88,6.65,6.65,0,0,1-4.38-1.28,7.73,7.73,0,0,1-2.3-3.18,14.3,14.3,0,0,1-.93-4.07c-.12-1.45-.17-2.76-.17-3.94V50.23H258.51V77a24.46,24.46,0,0,0,.8,6.28A14.37,14.37,0,0,0,262,88.67a13,13,0,0,0,4.82,3.72A17.18,17.18,0,0,0,274,93.76q5.31,0,8.41-2.35a15,15,0,0,0,4.6-5.52h.17V92.7h10.09V50.23H286.64Z"/><path class="cls-1" d="M343.51,60.67a17.7,17.7,0,0,0-1.59-4.2,11.61,11.61,0,0,0-3.15-3.67,16.67,16.67,0,0,0-5.13-2.61,24.52,24.52,0,0,0-7.6-1,30.46,30.46,0,0,0-9.78,1.59A20.73,20.73,0,0,0,308,56l5.57,5.58a15.85,15.85,0,0,1,5-3.23,16.39,16.39,0,0,1,6.29-1.2,11.6,11.6,0,0,1,7,2,6.91,6.91,0,0,1,2.75,6v1.15H332c-1.77,0-3.65,0-5.66.13a49.49,49.49,0,0,0-6,.62,32.51,32.51,0,0,0-5.71,1.46,16.89,16.89,0,0,0-4.82,2.61,12.22,12.22,0,0,0-3.32,4.07A12.9,12.9,0,0,0,305.25,81a11.33,11.33,0,0,0,1.32,5.57,12.19,12.19,0,0,0,3.5,4A15.18,15.18,0,0,0,315,93a20.72,20.72,0,0,0,5.71.8,18.32,18.32,0,0,0,7.78-1.64,13.62,13.62,0,0,0,5.84-5.26h.27V92.7h9.55V68.28c0-1,0-2.17-.09-3.49A23.55,23.55,0,0,0,343.51,60.67ZM334,76.07a9.63,9.63,0,0,1-2.61,7.12q-2.61,2.61-8.1,2.61a11.41,11.41,0,0,1-2.65-.31,7.32,7.32,0,0,1-2.39-1,5.91,5.91,0,0,1-1.72-1.73,4.42,4.42,0,0,1-.67-2.52,4.26,4.26,0,0,1,1.68-3.58,11.84,11.84,0,0,1,4.12-1.94,25.49,25.49,0,0,1,5.17-.85c1.83-.11,3.48-.17,5-.17H334Z"/><rect class="cls-1" x="354.69" y="25.82" width="10.62" height="66.88"/><path class="cls-1" d="M471,54.48a12.5,12.5,0,0,0-4.74-3.89,16.2,16.2,0,0,0-7.16-1.42,16.88,16.88,0,0,0-8.23,1.9,15,15,0,0,0-5.75,6q-3.27-7.87-13.27-7.88-5.31,0-8.45,2.35a14.28,14.28,0,0,0-4.55,5.35h-.18V50.23H408.56V92.7h10.62V69.52a15.55,15.55,0,0,1,.53-4.07A9.35,9.35,0,0,1,421.44,62a8.53,8.53,0,0,1,3-2.39,10.15,10.15,0,0,1,4.47-.88q3.88,0,5.57,2.34a10.65,10.65,0,0,1,1.68,6.33V92.7h10.62v-23a16.65,16.65,0,0,1,.49-4,10,10,0,0,1,1.59-3.54,8.14,8.14,0,0,1,2.83-2.47,8.75,8.75,0,0,1,4.2-.93,8.37,8.37,0,0,1,3.9.79,6.31,6.31,0,0,1,2.38,2.17,9,9,0,0,1,1.24,3.18,19.33,19.33,0,0,1,.36,3.76V92.7h10.61V67.4a30.6,30.6,0,0,0-.79-7.13A16.13,16.13,0,0,0,471,54.48Z"/><path class="cls-1" d="M520.24,60.67a16.88,16.88,0,0,0-1.59-4.2,11.57,11.57,0,0,0-3.14-3.67,16.9,16.9,0,0,0-5.13-2.61,24.58,24.58,0,0,0-7.61-1A30.44,30.44,0,0,0,493,50.76,20.76,20.76,0,0,0,484.72,56l5.58,5.58a15.63,15.63,0,0,1,5-3.23,16.37,16.37,0,0,1,6.28-1.2,11.66,11.66,0,0,1,7,2,6.9,6.9,0,0,1,2.74,6v1.15H508.7c-1.77,0-3.66,0-5.66.13a49.87,49.87,0,0,0-6,.62,32.63,32.63,0,0,0-5.7,1.46,16.76,16.76,0,0,0-4.82,2.61,12.1,12.1,0,0,0-3.32,4.07A12.77,12.77,0,0,0,482,81a11.22,11.22,0,0,0,1.33,5.57,12.17,12.17,0,0,0,3.49,4,15.33,15.33,0,0,0,5,2.39,20.65,20.65,0,0,0,5.7.8,18.37,18.37,0,0,0,7.79-1.64,13.68,13.68,0,0,0,5.84-5.26h.26V92.7h9.56V68.28c0-1,0-2.17-.09-3.49A22.68,22.68,0,0,0,520.24,60.67Zm-9.51,15.4a9.63,9.63,0,0,1-2.61,7.12c-1.74,1.74-4.43,2.61-8.09,2.61a11.5,11.5,0,0,1-2.66-.31,7.27,7.27,0,0,1-2.38-1,5.94,5.94,0,0,1-1.73-1.73,4.5,4.5,0,0,1-.66-2.52,4.26,4.26,0,0,1,1.68-3.58,11.87,11.87,0,0,1,4.11-1.94,25.59,25.59,0,0,1,5.18-.85c1.83-.11,3.48-.17,4.95-.17h2.21Z"/><path class="cls-1" d="M571.59,55.63A19.66,19.66,0,0,0,565,50.9a21.37,21.37,0,0,0-8.76-1.73,20.08,20.08,0,0,0-8.4,1.77,13.63,13.63,0,0,0-6.19,5.66h-.18V50.23H531.34v62.64H542V87.3h.27a15.38,15.38,0,0,0,2,2.17,16.36,16.36,0,0,0,3,2.08,18,18,0,0,0,4.07,1.59,20.59,20.59,0,0,0,5.31.62A19.85,19.85,0,0,0,565,92a19.3,19.3,0,0,0,6.51-4.73,21.94,21.94,0,0,0,4.2-7.08,25.09,25.09,0,0,0,1.5-8.75,26.55,26.55,0,0,0-1.41-8.76A20.39,20.39,0,0,0,571.59,55.63ZM565.7,76.24a11.93,11.93,0,0,1-2.47,4.07,12.54,12.54,0,0,1-18.31,0,11.8,11.8,0,0,1-2.48-4.07,14,14,0,0,1,0-9.55,11.89,11.89,0,0,1,2.48-4.07,12.55,12.55,0,0,1,18.31,0,12,12,0,0,1,2.47,4.07,13.84,13.84,0,0,1,0,9.55Z"/><path class="cls-1" d="M626.14,55.63a19.72,19.72,0,0,0-6.63-4.73,21.43,21.43,0,0,0-8.76-1.73,20,20,0,0,0-8.4,1.77,13.7,13.7,0,0,0-6.2,5.66H596V50.23H585.89v62.64h10.62V87.3h.26a14.92,14.92,0,0,0,2,2.17,16,16,0,0,0,3,2.08,17.8,17.8,0,0,0,4.07,1.59,20.57,20.57,0,0,0,5.3.62A19.93,19.93,0,0,0,619.51,92,19.36,19.36,0,0,0,626,87.3a21.59,21.59,0,0,0,4.2-7.08,24.87,24.87,0,0,0,1.51-8.75,26.55,26.55,0,0,0-1.42-8.76A20.24,20.24,0,0,0,626.14,55.63Zm-5.88,20.61a12,12,0,0,1-2.48,4.07,12.55,12.55,0,0,1-18.31,0A12,12,0,0,1,597,76.24a14,14,0,0,1,0-9.55,12,12,0,0,1,2.48-4.07,12.54,12.54,0,0,1,18.31,0,12,12,0,0,1,2.48,4.07,14,14,0,0,1,0,9.55Z"/><path class="cls-1" d="M645.53,29.44a6.55,6.55,0,0,0-4.83,1.91,6.2,6.2,0,0,0,0,8.93,6.54,6.54,0,0,0,4.83,1.9,7,7,0,0,0,4.91-1.81,6.21,6.21,0,0,0,0-9.11A7,7,0,0,0,645.53,29.44Z"/><rect class="cls-1" x="640.31" y="50.23" width="10.62" height="42.46"/><path class="cls-1" d="M697.14,54.3a13.67,13.67,0,0,0-4.82-3.71,16.55,16.55,0,0,0-7.21-1.42q-5.31,0-8.41,2.35a14.84,14.84,0,0,0-4.6,5.53h-.18V50.23H661.84V92.7h10.62V69.52a15.14,15.14,0,0,1,.53-4.07A9.33,9.33,0,0,1,674.71,62a8.65,8.65,0,0,1,3-2.39,10.15,10.15,0,0,1,4.47-.88A6.75,6.75,0,0,1,686.52,60a7.73,7.73,0,0,1,2.35,3.18,14,14,0,0,1,.92,4.07c.12,1.45.18,2.76.18,3.94V92.7h10.62V65.89a24.51,24.51,0,0,0-.8-6.28A14.12,14.12,0,0,0,697.14,54.3Z"/><path class="cls-1" d="M744.8,56.6h-.18a13.63,13.63,0,0,0-6.19-5.66,20,20,0,0,0-8.4-1.77,21.26,21.26,0,0,0-8.8,1.73,19.8,19.8,0,0,0-6.6,4.73,20.37,20.37,0,0,0-4.15,7.08,26.3,26.3,0,0,0-1.42,8.76,23.93,23.93,0,0,0,1.5,8.49,20.17,20.17,0,0,0,11,11.54,21.21,21.21,0,0,0,8.67,1.73A20.54,20.54,0,0,0,738,91.68a14,14,0,0,0,6.1-4.64h.18v3.09a23.65,23.65,0,0,1-.66,5.8,11.2,11.2,0,0,1-2.21,4.46,10.34,10.34,0,0,1-4.16,2.92,17,17,0,0,1-6.42,1.07,18.85,18.85,0,0,1-8-1.6,25.73,25.73,0,0,1-6.63-4.51l-6.37,8.67a25.14,25.14,0,0,0,9.82,5.49,41.11,41.11,0,0,0,11.23,1.5,29.3,29.3,0,0,0,10.71-1.77,19.78,19.78,0,0,0,7.47-5,20,20,0,0,0,4.38-7.87,35.73,35.73,0,0,0,1.42-10.4V50.23H744.8Zm-.88,19.55a11.11,11.11,0,0,1-2.52,3.94,12.22,12.22,0,0,1-4,2.61,13.55,13.55,0,0,1-5.26,1,12.52,12.52,0,0,1-4.95-1,12.33,12.33,0,0,1-4-2.65,12.1,12.1,0,0,1-3.54-8.67,14,14,0,0,1,.93-5.18,11.61,11.61,0,0,1,2.56-4,11.48,11.48,0,0,1,3.94-2.56,13.55,13.55,0,0,1,5.13-.93q5.84,0,9.2,3.45a12.38,12.38,0,0,1,3.36,9A13.64,13.64,0,0,1,743.92,76.15Z"/><polygon class="cls-1" points="755.16 27.11 759.78 27.11 759.78 39.63 761.19 39.63 761.19 27.11 765.81 27.11 765.81 25.82 755.16 25.82 755.16 27.11"/><polygon class="cls-1" points="779.24 25.82 774.58 37.05 769.91 25.82 767.77 25.82 767.77 39.63 769.17 39.63 769.17 27.69 769.21 27.69 774.21 39.63 774.95 39.63 779.94 27.69 779.98 27.69 779.98 39.63 781.38 39.63 781.38 25.82 779.24 25.82"/><path class="cls-1" d="M107.56,30.6,54.9.2a1.49,1.49,0,0,0-1.5,0,1.51,1.51,0,0,0-.75,1.3V29.3L2.25.2A1.49,1.49,0,0,0,.75.2,1.51,1.51,0,0,0,0,1.5V62.3a1.52,1.52,0,0,0,.75,1.3L53.4,94a1.51,1.51,0,0,0,1.5,0,1.5,1.5,0,0,0,.75-1.3V64.9L106.06,94a1.53,1.53,0,0,0,.75.2,1.59,1.59,0,0,0,.75-.2,1.52,1.52,0,0,0,.75-1.3V31.9A1.51,1.51,0,0,0,107.56,30.6ZM55.65,4.1l48.16,27.8L55.65,59.7V4.1ZM3,4.1,51.15,31.9,3,59.7Zm49.65,86L4.5,62.3,52.65,34.5V90.1Zm52.66,0L57.15,62.3l48.16-27.8Z"/></g></g></svg>