<svg xmlns="http://www.w3.org/2000/svg" width="465.967" height="413.031" viewBox="0 0 465.967 413.031"><g transform="translate(-1001.423 -270.489)"><g transform="translate(1268.633 270.489)"><path d="M869.07,195.919h165.56V87.5H869.07Z" transform="translate(-855.604 -87.5)" fill="#e6e6e6"/><path d="M856.46,195.919h168.252V87.5H856.46Z" transform="translate(-848.045 -87.5)" fill="#f0f0f0"/><path d="M869.07,358.18h165.56v21.277H869.07Z" transform="translate(-855.604 -249.761)" fill="#e6e6e6"/><path d="M835.45,358.18H1003.7v21.277H835.45Z" transform="translate(-835.45 -249.761)" fill="#f0f0f0"/><path d="M1028.229,199.426V105.15H874.12v94.276Z" transform="translate(-858.631 -98.08)" fill="#fafafa"/><path d="M1096.68,199.426l-19.687-94.276H1046.28l19.683,94.276Z" transform="translate(-961.834 -98.08)" fill="#fff"/><path d="M1249.935,198.521a.506.506,0,0,0,.5-.509V115.885a.5.5,0,0,0-1.009,0v82.127A.506.506,0,0,0,1249.935,198.521Z" transform="translate(-1083.613 -104.213)" fill="#f0f0f0"/><path d="M1031.569,199.426l-19.683-94.276H999.91l19.687,94.276Z" transform="translate(-934.037 -98.08)" fill="#fff"/><path d="M875.017,199.426V105.15h-.9v94.276Z" transform="translate(-858.631 -98.08)" fill="#e6e6e6"/><path d="M852.28,119.925h165.564l.649-7.915H852.933Z" transform="translate(-845.539 -102.193)" fill="#ebebeb" opacity="0.6"/><path d="M852.28,152.335h165.564l.649-7.915H852.933Z" transform="translate(-845.539 -121.621)" fill="#ebebeb" opacity="0.6"/><path d="M852.28,184.745h165.564l.649-7.915H852.933Z" transform="translate(-845.539 -141.05)" fill="#ebebeb" opacity="0.6"/><path d="M852.28,217.145h165.564l.649-7.915H852.933Z" transform="translate(-845.539 -160.472)" fill="#ebebeb" opacity="0.6"/><path d="M852.28,249.555h165.564l.649-7.915H852.933Z" transform="translate(-845.539 -179.9)" fill="#ebebeb" opacity="0.6"/><path d="M852.28,281.961h165.564l.649-7.911H852.933Z" transform="translate(-845.539 -199.329)" fill="#ebebeb" opacity="0.6"/></g><g transform="translate(1301.502 471.762)"><path d="M1171.111,793.185H1136.4V786.34h34.711Z" transform="translate(-1048.725 -707.698)" fill="#e6e6e6"/><path d="M972.92,747.493h6.409V590H972.92Z" transform="translate(-950.726 -590)" fill="#e6e6e6"/><path d="M917.51,793.185h87.675V786.34H917.51Z" transform="translate(-917.51 -707.698)" fill="#f5f5f5"/><path d="M1171.111,886.685H1136.4V879.84h34.711Z" transform="translate(-1048.725 -763.747)" fill="#e6e6e6"/><path d="M917.51,886.685h87.675V879.84H917.51Z" transform="translate(-917.51 -763.747)" fill="#f5f5f5"/><path d="M1171.111,606.185H1136.4V599.34h34.711Z" transform="translate(-1048.725 -595.599)" fill="#e6e6e6"/><path d="M917.51,606.185h87.675V599.34H917.51Z" transform="translate(-917.51 -595.599)" fill="#f5f5f5"/><path d="M1171.111,699.685H1136.4V692.84h34.711Z" transform="translate(-1048.725 -651.648)" fill="#e6e6e6"/><path d="M917.51,699.685h87.675V692.84H917.51Z" transform="translate(-917.51 -651.648)" fill="#f5f5f5"/><path d="M1191.81,747.493h6.409V590h-6.409Z" transform="translate(-1081.941 -590)" fill="#e6e6e6"/><path d="M1120.4,747.493h6.409V590H1120.4Z" transform="translate(-1039.134 -590)" fill="#f5f5f5"/><path d="M917.51,747.493h6.409V590H917.51Z" transform="translate(-917.51 -590)" fill="#f5f5f5"/></g><g transform="translate(1012.554 502.011)"><path d="M196.12,792.764H261.7V665.52H196.12Z" transform="translate(-196.12 -665.52)" fill="#e6e6e6"/><path d="M213.632,956.908H196.12V939.34h35.873Z" transform="translate(-196.12 -829.663)" fill="#fafafa"/><path d="M642.55,792.764h65.581V665.52H642.55Z" transform="translate(-463.736 -665.52)" fill="#e6e6e6"/><path d="M196.12,786.716h194.1V665.52H196.12Z" transform="translate(-196.12 -665.52)" fill="#fafafa"/><path d="M609.5,956.908h17.512V939.34H591.14Z" transform="translate(-432.918 -829.663)" fill="#fafafa"/><path d="M230.04,808.6H396.966V778.27H230.04Z" transform="translate(-216.454 -733.109)" fill="#f0f0f0"/><path d="M230.04,900.509H396.966V870.18H230.04Z" transform="translate(-216.454 -788.205)" fill="#f0f0f0"/><path d="M301.019,777.582H404.492a5.5,5.5,0,0,0,5.5-5.5v-.373H295.52v.373A5.5,5.5,0,0,0,301.019,777.582Z" transform="translate(-255.706 -729.176)" fill="#fafafa"/><path d="M230.04,716.7H396.966V686.37H230.04Z" transform="translate(-216.454 -678.019)" fill="#f0f0f0"/><path d="M301.019,685.678H404.492a5.5,5.5,0,0,0,5.5-5.5v-.368H295.52v.368A5.5,5.5,0,0,0,301.019,685.678Z" transform="translate(-255.706 -674.086)" fill="#fafafa"/><path d="M301.019,869.492H404.492a5.5,5.5,0,0,0,5.5-5.5v-.372H295.52v.372A5.5,5.5,0,0,0,301.019,869.492Z" transform="translate(-255.706 -784.273)" fill="#fafafa"/></g><g transform="translate(1009.534 270.489)"><path d="M222.2,195.919H387.764V87.5H222.2Z" transform="translate(-208.734 -87.5)" fill="#e6e6e6"/><path d="M209.59,195.919H377.842V87.5H209.59Z" transform="translate(-201.175 -87.5)" fill="#f0f0f0"/><path d="M222.2,358.18H387.764v21.277H222.2Z" transform="translate(-208.734 -249.761)" fill="#e6e6e6"/><path d="M188.58,358.18H356.832v21.277H188.58Z" transform="translate(-188.58 -249.761)" fill="#f0f0f0"/><path d="M381.359,199.426V105.15H227.25v94.276Z" transform="translate(-211.761 -98.08)" fill="#fafafa"/><path d="M449.81,199.426,430.128,105.15H399.41L419.1,199.426Z" transform="translate(-314.964 -98.08)" fill="#fff"/><path d="M603.065,198.521a.506.506,0,0,0,.5-.509V115.885a.5.5,0,1,0-1.009,0v82.127A.509.509,0,0,0,603.065,198.521Z" transform="translate(-436.743 -104.213)" fill="#f0f0f0"/><path d="M384.7,199.426,365.022,105.15H353.05l19.683,94.276Z" transform="translate(-287.173 -98.08)" fill="#fff"/><path d="M228.147,199.426V105.15h-.9v94.276Z" transform="translate(-211.761 -98.08)" fill="#e6e6e6"/><path d="M205.42,119.925H370.98l.649-7.915H206.069Z" transform="translate(-198.675 -102.193)" fill="#ebebeb" opacity="0.6"/><path d="M205.42,131.075H370.98l.649-7.915H206.069Z" transform="translate(-198.675 -108.877)" fill="#ebebeb" opacity="0.6"/><path d="M205.42,142.225H370.98l.649-7.915H206.069Z" transform="translate(-198.675 -115.561)" fill="#ebebeb" opacity="0.6"/><path d="M205.42,153.365H370.98l.649-7.915H206.069Z" transform="translate(-198.675 -122.239)" fill="#ebebeb" opacity="0.6"/><path d="M205.42,164.515H370.98l.649-7.915H206.069Z" transform="translate(-198.675 -128.923)" fill="#ebebeb" opacity="0.6"/><path d="M205.42,175.661H370.98l.649-7.911H206.069Z" transform="translate(-198.675 -135.606)" fill="#ebebeb" opacity="0.6"/></g><g transform="translate(1026.613 413.683)"><path d="M288.04,560.334h5.724V496.54H288.04Z" transform="translate(-265.281 -475.896)" fill="#f5f5f5"/><path d="M289.88,560.224H291.5V496.43H289.88Z" transform="translate(-266.384 -475.83)" fill="#fafafa"/><path d="M295.61,560.224h.633V496.43h-.633Z" transform="translate(-269.819 -475.83)" fill="#fafafa"/><path d="M242.29,657.529h42.373a5.34,5.34,0,0,0-5.339-5.339H247.629a5.34,5.34,0,0,0-5.339,5.339Z" transform="translate(-237.856 -569.202)" fill="#f0f0f0"/><path d="M267.036,527.891a1.653,1.653,0,0,0,1.65-1.65V484.416a1.648,1.648,0,0,0-3.3,0v41.825A1.652,1.652,0,0,0,267.036,527.891Z" transform="translate(-251.703 -467.641)" fill="#f0f0f0"/><path d="M231.22,480.809h51.241L276.565,445H237.116Z" transform="translate(-231.22 -445)" fill="#e0e0e0"/></g><g transform="translate(1001.423 656.308)"><path d="M634.3,1064.346c0,7.518-104.309,13.606-232.984,13.606s-232.984-6.088-232.984-13.606,104.309-13.606,232.984-13.606S634.3,1056.832,634.3,1064.346Z" transform="translate(-168.33 -1050.74)" fill="#f5f5f5"/></g><g transform="translate(1057.912 351.699)"><path d="M310.954,465.326l-1.594-22.162,1.2-.084,1.6,22.158Z" transform="translate(-309.36 -381.865)" fill="#f5b2bf"/><path d="M316,535.393l-.6-8.335,1.2-.088.6,8.335Z" transform="translate(-312.981 -432.154)" fill="#f5b2bf"/><path d="M592.054,487.009H334.717a11.59,11.59,0,0,1-11.343-10.582L310.729,300.832a9.742,9.742,0,0,1,9.821-10.582H577.886a11.59,11.59,0,0,1,11.343,10.582l12.645,175.594A9.742,9.742,0,0,1,592.054,487.009Z" transform="translate(-310.164 -290.25)" fill="#f5b2bf"/><g transform="translate(1.523)"><path d="M594.518,487.009H337.178a11.593,11.593,0,0,1-11.343-10.582L313.189,300.832a9.745,9.745,0,0,1,9.821-10.582H580.347a11.6,11.6,0,0,1,11.347,10.582l12.641,175.594A9.739,9.739,0,0,1,594.518,487.009Z" transform="translate(-313.162 -290.25)" fill="#e6133d"/><path d="M594.518,487.009H337.178a11.593,11.593,0,0,1-11.343-10.582L313.189,300.832a9.745,9.745,0,0,1,9.821-10.582H580.347a11.6,11.6,0,0,1,11.347,10.582l12.641,175.594A9.739,9.739,0,0,1,594.518,487.009Z" transform="translate(-313.162 -290.25)" fill="#fae5e9"/><path d="M588.3,303.46H330.965c-.292,0-.577.012-.861.036-6.577.541-5.235,10.546,1.406,10.546H589.283c6.641,0,6.545-10.006-.112-10.546C588.883,303.472,588.594,303.46,588.3,303.46Z" transform="translate(-320.736 -298.169)" fill="rgba(230,19,61,0.24)"/><path d="M348.161,313.043a2.226,2.226,0,0,1-2.251,2.427,2.649,2.649,0,0,1-2.6-2.427,2.227,2.227,0,0,1,2.251-2.423A2.646,2.646,0,0,1,348.161,313.043Z" transform="translate(-331.231 -302.461)" fill="#fafafa"/><path d="M368.765,313.043a2.228,2.228,0,0,1-2.251,2.427,2.65,2.65,0,0,1-2.6-2.427,2.227,2.227,0,0,1,2.251-2.423A2.65,2.65,0,0,1,368.765,313.043Z" transform="translate(-343.58 -302.461)" fill="#fafafa"/><path d="M389.371,313.043a2.226,2.226,0,0,1-2.251,2.427,2.646,2.646,0,0,1-2.6-2.427,2.225,2.225,0,0,1,2.251-2.423A2.649,2.649,0,0,1,389.371,313.043Z" transform="translate(-355.935 -302.461)" fill="#fafafa"/></g><path d="M608.339,510.128H362.122a4.187,4.187,0,0,1-4.11-3.837l-10.4-144.4a3.518,3.518,0,0,1,3.557-3.837H597.388a4.191,4.191,0,0,1,4.114,3.837l10.4,144.4A3.523,3.523,0,0,1,608.339,510.128Z" transform="translate(-332.285 -330.893)" fill="#fff"/><g transform="translate(119.125 60.674)"><g transform="translate(3.055)"><path d="M665.413,506.155,661.4,450.5l-12.144-7.31H615.85l4.534,62.965Z" transform="translate(-615.268 -442.605)" fill="none"/><path d="M664.542,505.865H619.513a.582.582,0,0,1-.581-.541L614.4,442.355a.589.589,0,0,1,.581-.625h33.409a.594.594,0,0,1,.3.084l12.144,7.31a.572.572,0,0,1,.28.457l4.009,55.659a.589.589,0,0,1-.581.625ZM620.053,504.7h43.863l-3.941-54.734-11.748-7.07H615.6Z" transform="translate(-614.396 -441.73)" fill="#e6133d" fill-rule="evenodd"/><g transform="translate(33.409 0.001)"><path d="M711.4,450.5l-12.144-7.31,4.458,9.681Z" transform="translate(-698.678 -442.606)" fill="#ebebeb"/><path d="M702.847,452.582a.587.587,0,0,1-.529-.34l-4.458-9.685a.581.581,0,0,1,.829-.741l12.144,7.31a.582.582,0,0,1-.128,1.057l-7.686,2.371A.5.5,0,0,1,702.847,452.582Zm-3.136-8.792,3.453,7.5,5.956-1.839Z" transform="translate(-697.806 -441.732)" fill="#e6133d" fill-rule="evenodd"/></g><g transform="translate(11.384 26.412)"><path d="M655.286,510.213a2.339,2.339,0,0,1-2.363,2.543,2.778,2.778,0,0,1-2.724-2.543,2.331,2.331,0,0,1,2.359-2.543A2.779,2.779,0,0,1,655.286,510.213Z" transform="translate(-647.239 -507.67)" fill="#e6133d"/><path d="M696.487,510.213a2.333,2.333,0,0,1-2.359,2.543,2.779,2.779,0,0,1-2.728-2.543,2.337,2.337,0,0,1,2.363-2.543A2.775,2.775,0,0,1,696.487,510.213Z" transform="translate(-671.937 -507.67)" fill="#e6133d"/><path d="M672.026,541.554a.585.585,0,0,1-.581-.541c-.3-4.094-6.709-7.418-14.3-7.418-5.027,0-9.545,1.494-11.784,3.9a4.5,4.5,0,0,0-1.37,3.433.582.582,0,0,1-1.162.084,5.7,5.7,0,0,1,1.678-4.31c2.455-2.636,7.3-4.274,12.637-4.274,8.327,0,15.116,3.733,15.461,8.5a.58.58,0,0,1-.541.621C672.054,541.55,672.038,541.554,672.026,541.554Z" transform="translate(-642.818 -522.513)" fill="#e6133d"/></g><path d="M638.629,495.291a.585.585,0,0,1-.4-.156.578.578,0,0,1-.028-.821l2.551-2.752a.582.582,0,0,1,.853.793l-2.552,2.748A.587.587,0,0,1,638.629,495.291Z" transform="translate(-628.574 -471.491)" fill="#e6133d"/><path d="M707.467,495.291a.585.585,0,0,1-.4-.156l-2.948-2.752a.582.582,0,1,1,.8-.849l2.944,2.748a.587.587,0,0,1,.032.825A.6.6,0,0,1,707.467,495.291Z" transform="translate(-668.072 -471.491)" fill="#e6133d"/></g><g transform="translate(0 75.835)"><path d="M606.77,631.46h2.716l3.921,5.207-.376-5.207h2.74l.681,9.413h-2.744l-3.9-5.171.372,5.171h-2.736Z" transform="translate(-606.77 -631.3)" fill="#e6133d"/><path d="M633.971,635.931A4.583,4.583,0,0,1,635,632.342a4.534,4.534,0,0,1,3.485-1.282,5.254,5.254,0,0,1,3.713,1.262,5.132,5.132,0,0,1,1.526,3.533,5.67,5.67,0,0,1-.361,2.708,3.588,3.588,0,0,1-1.49,1.642,5.038,5.038,0,0,1-2.571.589,6.281,6.281,0,0,1-2.672-.509,4.414,4.414,0,0,1-1.81-1.606A5.625,5.625,0,0,1,633.971,635.931Zm2.908.016a3.362,3.362,0,0,0,.681,2.047,1.932,1.932,0,0,0,1.486.621,1.656,1.656,0,0,0,1.406-.609,3.338,3.338,0,0,0,.357-2.191,3.075,3.075,0,0,0-.677-1.939,1.972,1.972,0,0,0-1.5-.613,1.644,1.644,0,0,0-1.37.621A3.035,3.035,0,0,0,636.879,635.947Z" transform="translate(-623.064 -631.06)" fill="#e6133d" fill-rule="evenodd"/><path d="M672.46,631.46h4.318a5.424,5.424,0,0,1,2.091.344,3.716,3.716,0,0,1,1.37,1,4.469,4.469,0,0,1,.857,1.506,7.5,7.5,0,0,1,.36,1.826,6.1,6.1,0,0,1-.176,2.339,3.525,3.525,0,0,1-.853,1.394,2.842,2.842,0,0,1-1.254.749,6.667,6.667,0,0,1-1.714.256h-4.322Zm3.06,2.131.373,5.143h.713a2.877,2.877,0,0,0,1.282-.2,1.248,1.248,0,0,0,.553-.7,4.41,4.41,0,0,0,.1-1.634,3.35,3.35,0,0,0-.637-2.047,2.2,2.2,0,0,0-1.658-.553Z" transform="translate(-646.148 -631.3)" fill="#e6133d" fill-rule="evenodd"/><path d="M702.437,639.319h-3.3l-.349,1.554H695.82l2.86-9.413h3.172l4.214,9.413h-3.044Zm-.749-2.035-1.282-3.385-.785,3.385Z" transform="translate(-660.152 -631.3)" fill="#e6133d" fill-rule="evenodd"/><path d="M718.11,631.46h8.84l.168,2.323H724.15l.513,7.09h-2.912l-.509-7.09h-2.968Z" transform="translate(-673.514 -631.3)" fill="#e6133d"/><path d="M747.191,639.319h-3.3l-.344,1.554H740.57l2.86-9.413H746.6l4.214,9.413h-3.044Zm-.753-2.035-1.282-3.385-.785,3.385Z" transform="translate(-686.977 -631.3)" fill="#e6133d" fill-rule="evenodd"/></g></g></g><g transform="translate(1279.363 305.531)"><path d="M1061.06,282.028c1.077-.537,2.355-1.234,3.541-1.883,1.2-.665,2.4-1.354,3.585-2.075,2.351-1.446,4.726-2.88,6.977-4.47a92.562,92.562,0,0,0,12.633-10.4c.5-.461.929-.969,1.394-1.454l.685-.737.344-.365.168-.184c.048-.048.036-.04.016-.012l-.04.06c-.172.32-.028.224.036-.088a6.43,6.43,0,0,0,.172-1.31,36.154,36.154,0,0,0-.877-7.59c-1.069-5.391-2.688-10.935-4.29-16.366l4.666-2.047a98.145,98.145,0,0,1,7.346,16.338,38.309,38.309,0,0,1,2.067,9.485,14.5,14.5,0,0,1-.1,3.016,9.157,9.157,0,0,1-1.47,3.949l-.2.276-.152.2-.188.228-.369.449-.741.9c-.5.593-.977,1.218-1.51,1.774a85.55,85.55,0,0,1-13.674,12.2c-2.447,1.786-4.951,3.489-7.55,5.035q-1.941,1.172-3.937,2.263c-1.35.749-2.631,1.4-4.166,2.123Z" transform="translate(-981.424 -209.828)" fill="#ffb573"/><path d="M1028.971,1056.194a1.362,1.362,0,0,1-.392-1.27.813.813,0,0,1,.473-.669c1.174-.529,4.23,1.442,4.574,1.67a.246.246,0,0,1,.1.24.252.252,0,0,1-.18.192,12.268,12.268,0,0,1-2.66.36A2.9,2.9,0,0,1,1028.971,1056.194Zm.276-1.5a.333.333,0,0,0-.2.3.894.894,0,0,0,.24.849c.513.465,1.83.525,3.581.172C1031.627,1055.261,1029.865,1054.412,1029.248,1054.692Z" transform="translate(-961.94 -702.017)" fill="#e6133d" fill-rule="evenodd"/><path d="M1036.724,1052.8c-.961-.545-2.792-2.716-2.563-3.849a.83.83,0,0,1,.8-.665,1.239,1.239,0,0,1,1.009.32c1.094.965,1.105,3.865,1.105,3.99a.239.239,0,0,1-.116.2.257.257,0,0,1-.12.032A.2.2,0,0,1,1036.724,1052.8Zm-1.706-4.042c-.3.036-.368.172-.392.284-.136.693,1.005,2.323,1.963,3.088-.056-.965-.28-2.591-.933-3.168a.774.774,0,0,0-.529-.212C1035.094,1048.75,1035.058,1048.754,1035.018,1048.758Z" transform="translate(-965.287 -698.485)" fill="#e6133d" fill-rule="evenodd"/><path d="M1008.428,280.2c-1.17,5.972-3.637,18.068.541,22.054q-1.634,6.062-12.729,6.06-12.2,0-5.832-6.06c6.657-1.59,6.485-6.529,5.327-11.171Z" transform="translate(-937.76 -238.057)" fill="#ffb573"/><path d="M986.508,331.08c-1.915.26-.284-4.7.493-5.215,1.8-1.19,25.058-2.872,24.906-.048-.1,1.214-.669,3.585-1.686,4.39S1003.231,328.58,986.508,331.08Z" transform="translate(-936.196 -264.476)" fill="#263238"/><path d="M995.486,323.027c-1.522.517-1.378-4.486-.857-5.087,1.2-1.39,20.023-6.228,20.584-3.493.212,1.182.316,3.545-.328,4.458S1008.708,318.308,995.486,323.027Z" transform="translate(-941.384 -258.093)" fill="#263238"/><path d="M973.789,249.418a.47.47,0,0,1-.4-.172,3.812,3.812,0,0,0-3.112-1.478.476.476,0,1,1-.1-.945,4.717,4.717,0,0,1,3.953,1.818.478.478,0,0,1-.068.673A.47.47,0,0,1,973.789,249.418Z" transform="translate(-926.689 -218.041)" fill="#263238"/><path d="M970.465,268a17.409,17.409,0,0,1-2.375,5.439,2.942,2.942,0,0,0,2.936.26Z" transform="translate(-925.692 -230.744)" fill="#ff5652"/><path d="M972.6,262.305c.08.809-.284,1.506-.813,1.558s-1.021-.561-1.1-1.37.284-1.506.809-1.558S972.524,261.5,972.6,262.305Z" transform="translate(-927.246 -226.507)" fill="#263238"/><path d="M970.345,260.448l-1.995-.368C969.111,261.025,969.776,261.145,970.345,260.448Z" transform="translate(-925.848 -225.996)" fill="#263238"/><path d="M1055.036,1024.172H1044.97l.789-23.312h10.066Z" transform="translate(-971.778 -670.062)" fill="#ffb573"/><path d="M1021.3,1056.15h11.307a.8.8,0,0,1,.805.685l1.29,8.948a1.618,1.618,0,0,1-1.614,1.79c-3.945-.068-5.844-.3-10.815-.3-3.06,0-7.53.316-11.756.316-4.13,0-4.45-4.178-2.692-4.554,7.891-1.7,9.136-4.037,11.792-6.269A2.642,2.642,0,0,1,1021.3,1056.15Z" transform="translate(-948.907 -703.206)" fill="#263238"/><g transform="translate(73.576 330.806)" opacity="0.2"><path d="M1056.4,1000.88h-10.07l-.4,12.012H1056Z" transform="translate(-1045.93 -1000.88)"/></g><path d="M905.45,294.58a197.035,197.035,0,0,1-18.085-8.115,109.041,109.041,0,0,1-17.307-10.542,40.239,40.239,0,0,1-4.114-3.689c-.332-.36-.669-.7-1-1.109a14.756,14.756,0,0,1-1.057-1.358,9.581,9.581,0,0,1-1.606-4.338,9.733,9.733,0,0,1,.589-4.35,13.175,13.175,0,0,1,1.69-3.132,22.369,22.369,0,0,1,4.074-4.23,50.208,50.208,0,0,1,8.776-5.608c1.49-.793,3.008-1.506,4.546-2.159,1.546-.669,3.052-1.29,4.694-1.85l2.131,4.626c-5.239,3.3-10.67,6.937-14.66,11.007a16.417,16.417,0,0,0-2.351,2.992c-.573.945-.565,1.654-.469,1.6.048,0,.028-.02.168.12l.481.513c.18.216.433.437.661.657a30.439,30.439,0,0,0,3.24,2.6,77.2,77.2,0,0,0,7.731,4.77q4.068,2.259,8.335,4.31c5.664,2.712,11.532,5.323,17.291,7.706Z" transform="translate(-862.239 -216.416)" fill="#ffb573"/><path d="M925.468,238.126l1.662-3.609-7.562-2.628q-2.361,7.1.449,10.366A7.261,7.261,0,0,0,925.468,238.126Z" transform="translate(-895.959 -209.097)" fill="#ffb573"/><path d="M928.742,216.362l-6.048-1.742-1.514,6.917,7.562,2.628Z" transform="translate(-897.571 -198.744)" fill="#ffb573"/><path d="M1124.7,226.7l.881-8.435-7.795,1.835q-.114,7.907,4.009,9.164Z" transform="translate(-1015.426 -200.926)" fill="#ffb573"/><path d="M1120.269,203.52l-5.079,2.371,1.042,5.367,7.794-1.834Z" transform="translate(-1013.872 -192.091)" fill="#ffb573"/><path d="M1000.631,230.835c.369,9.986.737,14.2-3.773,19.787-6.785,8.4-19.13,6.669-22.47-3-3.008-8.708-3.1-23.568,6.22-28.475A13.625,13.625,0,0,1,1000.631,230.835Z" transform="translate(-928.38 -200.484)" fill="#ffb573"/><g transform="translate(35.989)"><path d="M994.854,239.915c9.8-4.238,16.246-13.166,13.526-27.129-2.6-13.358-11.62-14.676-15.345-11.9s-13.01-1.358-18.585,3.329c-9.653,8.127-.525,16.883,4.23,22.074C981.52,232.121,985.241,244.069,994.854,239.915Z" transform="translate(-962.942 -189.794)" fill="#263238"/><path d="M1018.672,202.466c3.308,4.786,9.653,6.14,14.167,3.02s5.5-9.533,2.195-14.319-9.649-6.14-14.167-3.02S1015.368,197.68,1018.672,202.466Z" transform="translate(-990.83 -181.868)" fill="#f5b2bf"/><path d="M1027.707,187.011c-1.414-8.051,6.2-14.255,16.382-11.259s4.8,12.028,2.712,19.238,3.393,14.075,5.68,8.588q2.3-5.491-1.558-7.186,10.815,2.8.769,14.992c-10.046,12.189-19.142-1.27-16.683-9.212C1037,195.751,1029.04,194.618,1027.707,187.011Z" transform="translate(-997.317 -174.985)" fill="#263238"/><path d="M974.816,209.345c-4.65-2.427-12.525-4.386-17,3.152a12,12,0,0,0-1.3,8.4l13.683.909Z" transform="translate(-954.604 -194.279)" fill="#263238"/><path d="M952.389,217.713h-.02a.3.3,0,0,1-.28-.316c.012-.2.34-5.039,3.26-8.071,7.054-7.33,15.321-1.25,17.684.785a.3.3,0,0,1,.032.425.3.3,0,0,1-.421.032c-2.267-1.951-10.178-7.775-16.863-.825-2.764,2.868-3.092,7.642-3.1,7.69A.3.3,0,0,1,952.389,217.713Z" transform="translate(-952.088 -193.462)" fill="#263238"/></g><path d="M986.39,260.765A8.307,8.307,0,0,1,984.4,265.9c-1.658,1.943-3.565.985-4-1.166-.393-1.939,0-5.287,2.1-6.457C984.563,257.124,986.406,258.542,986.39,260.765Z" transform="translate(-932.989 -224.67)" fill="#ffb573"/><g transform="translate(51.238 127.527)"><path d="M990.16,493.37q.643,69.863,6.7,108.8,4.9,31.447,13.955,104.169h13.727q1.34-70.205-1.146-101.309c-6.285-78.7,9.941-93.419-3.152-111.659Z" transform="translate(-990.16 -493.37)" fill="#263238"/><path d="M990.16,493.37q.643,69.863,6.7,108.8,4.9,31.447,13.955,104.169h13.727q1.34-70.205-1.146-101.309c-6.285-78.7,9.941-93.419-3.152-111.659Z" transform="translate(-990.16 -493.37)" fill="#fff" opacity="0.102"/></g><path d="M998.369,563.594c4.818,21.089.973,54.3-1.658,68.925-2.788-22.206-4.194-50.985-4.891-72.074C994.307,556.408,996.663,556.144,998.369,563.594Z" transform="translate(-939.917 -404.372)" opacity="0.302"/><path d="M1036.89,1015.631h17.484l.917-6.136-18.5-.625Z" transform="translate(-966.875 -674.864)" fill="#e6133d"/><g transform="translate(73.68 63.232)"><path d="M1047.515,338.169c1.646-3.272,10.482-5.327,15.317-5.319l3.617,16.058q-9.631,14.287-13.63,12.773C1048.088,359.891,1043.99,345.175,1047.515,338.169Z" transform="translate(-1046.188 -332.85)" fill="#407bff"/><path d="M1047.515,338.169c1.646-3.272,10.482-5.327,15.317-5.319l3.617,16.058q-9.631,14.287-13.63,12.773C1048.088,359.891,1043.99,345.175,1047.515,338.169Z" transform="translate(-1046.188 -332.85)" fill="#c90028"/></g><path d="M1015.243,1015.432c-1.126,1.218-3.232,3.24-4.69,3.092a1.329,1.329,0,0,1-1.029-.685.768.768,0,0,1-.048-.753c.6-1.27,5.051-1.975,5.556-2.051a.243.243,0,0,1,.248.124.237.237,0,0,1-.008.236C1015.263,1015.408,1015.251,1015.42,1015.243,1015.432Zm-5.335,1.859a.3.3,0,0,0,.024.3.853.853,0,0,0,.673.453c.817.084,2.211-.813,3.8-2.423-1.754.324-4.057.945-4.466,1.618A.3.3,0,0,0,1009.908,1017.291Z" transform="translate(-950.455 -678.558)" fill="#e6133d" fill-rule="evenodd"/><path d="M1016.059,1012.258c-1.29.268-4.486-.092-5.007-1.122-.12-.244-.164-.629.328-1.073a1.73,1.73,0,0,1,1.31-.441c1.642.1,3.425,2.159,3.5,2.247a.234.234,0,0,1,.044.232.251.251,0,0,1-.02.048A.24.24,0,0,1,1016.059,1012.258Zm-4.578-1.338c.312.621,2.62,1.053,4.042.933a5.517,5.517,0,0,0-2.864-1.758,1.253,1.253,0,0,0-.957.324,1.2,1.2,0,0,0-.192.216A.256.256,0,0,0,1011.481,1010.92Z" transform="translate(-951.399 -675.311)" fill="#e6133d" fill-rule="evenodd"/><path d="M1021.368,973.834l-9.2,4.086-4.106-8.536-5.359-11.179-.629-1.3,9.2-4.094.709,1.462,5.2,10.827Z" transform="translate(-946.061 -641.258)" fill="#ffb573"/><path d="M1018.116,967.287,1009,971.572l-5.359-11.179,9.277-3.933Z" transform="translate(-947.003 -643.446)" opacity="0.2"/><g transform="translate(17.306 127.523)"><path d="M928.582,493.364q-29.41,73.095-21.437,107.522,7.2,31.11,39.057,90.026l12.317-6.18q-19.695-71.124-21.83-86.573c-4.158-30.065,22.563-72.5,22.563-104.8Z" transform="translate(-905.445 -493.36)" fill="#263238"/><path d="M928.582,493.364q-29.41,73.095-21.437,107.522,7.2,31.11,39.057,90.026l12.317-6.18q-19.695-71.124-21.83-86.573c-4.158-30.065,22.563-72.5,22.563-104.8Z" transform="translate(-905.445 -493.36)" fill="#fff" opacity="0.102"/></g><path d="M1010.246,1002.11l9.14-6.653a.8.8,0,0,1,1.053.08l6.309,6.477a1.616,1.616,0,0,1-.252,2.4c-3.228,2.267-4.9,3.2-8.92,6.124-2.475,1.8-7.4,5.78-10.819,8.267-3.341,2.431-6.056-.761-4.859-2.1,5.379-6.016,6.513-9.733,7.35-13.1A2.6,2.6,0,0,1,1010.246,1002.11Z" transform="translate(-945.786 -666.726)" fill="#263238"/><path d="M1000.478,972.5l15.9-7.27-2.039-6.481-17.027,7.766Z" transform="translate(-943.208 -644.819)" fill="#e6133d"/><g transform="translate(27.145 59.266)"><path d="M951.111,331.413c-1.318-3.413-12.805-7.158-18.569-8.463L930.01,341.9q9.409,13.524,13.542,12.4C948.431,352.983,953.938,338.727,951.111,331.413Z" transform="translate(-930.01 -322.95)" fill="#407bff"/><path d="M951.111,331.413c-1.318-3.413-12.805-7.158-18.569-8.463L930.01,341.9q9.409,13.524,13.542,12.4C948.431,352.983,953.938,338.727,951.111,331.413Z" transform="translate(-930.01 -322.95)" fill="#c90028"/></g><g transform="translate(34.036 63.862)"><path d="M948.81,337.338q-4.795,1.688,4.81,60.75H994.5c-.689-16.639-.7-26.9,7.246-61.043a105.648,105.648,0,0,0-17.36-2.287,130.334,130.334,0,0,0-18.561,0A155.7,155.7,0,0,0,948.81,337.338Z" transform="translate(-947.214 -334.423)" fill="#407bff"/><path d="M948.81,337.338q-4.795,1.688,4.81,60.75H994.5c-.689-16.639-.7-26.9,7.246-61.043a105.648,105.648,0,0,0-17.36-2.287,130.334,130.334,0,0,0-18.561,0A155.7,155.7,0,0,0,948.81,337.338Z" transform="translate(-947.214 -334.423)" fill="#c90028"/></g><g transform="translate(39.172 124.819)"><path d="M1002.8,486.918l1.846,3.657c.14.284-.2.573-.669.573H961.1c-.368,0-.673-.18-.7-.413l-.369-3.657c-.024-.252.3-.469.7-.469h41.4A.738.738,0,0,1,1002.8,486.918Z" transform="translate(-960.037 -486.61)" fill="#407bff"/><path d="M1002.8,486.918l1.846,3.657c.14.284-.2.573-.669.573H961.1c-.368,0-.673-.18-.7-.413l-.369-3.657c-.024-.252.3-.469.7-.469h41.4A.738.738,0,0,1,1002.8,486.918Z" transform="translate(-960.037 -486.61)" fill="#f5b2bf"/></g><path d="M1051.489,491.059h1.109c.22,0,.389-.112.373-.252l-.517-4.754c-.016-.14-.208-.252-.429-.252h-1.109c-.22,0-.389.112-.376.252l.521,4.754C1051.076,490.947,1051.268,491.059,1051.489,491.059Z" transform="translate(-975.116 -361.305)" fill="#263238"/><path d="M984.4,491.059h1.109c.22,0,.389-.112.373-.252l-.517-4.754c-.016-.14-.208-.252-.433-.252h-1.105c-.224,0-.393.112-.377.252l.521,4.754C983.985,490.947,984.177,491.059,984.4,491.059Z" transform="translate(-934.898 -361.305)" fill="#263238"/></g></g></svg>