<?xml version="1.0" encoding="UTF-8"?>
<svg width="185px" height="90px" viewBox="0 0 185 90" version="1.1" xmlns="http://www.w3.org/2000/svg" xmlns:xlink="http://www.w3.org/1999/xlink">
    <!-- Generator: Sketch 52.6 (67491) - http://www.bohemiancoding.com/sketch -->
    <title>logo-color</title>
    <desc>Created with Sketch.</desc>
    <g id="Page-1" stroke="none" stroke-width="1" fill="none" fill-rule="evenodd">
        <g id="logo-color">
            <g id="Group-3" transform="translate(117.000000, 0.000000)">
                <path d="M60.3737425,63.2474849 C48.983564,63.2474849 39.75,54.0139209 39.75,42.6237425 C39.75,31.233564 48.983564,22 60.3737425,22 L60.3737425,25.2193159 C50.7615431,25.2193159 42.9693159,33.0115431 42.9693159,42.6237425 C42.9693159,52.2359418 50.7615431,60.028169 60.3737425,60.028169 L60.3737425,63.2474849 Z" id="Path" fill="#4AC9E3"></path>
                <path d="M60.4678068,70.9356137 C45.0216136,70.9356137 32.5,58.414 32.5,42.9678068 C32.5,27.5216136 45.0216136,15 60.4678068,15 L60.4678068,18.2193159 C46.8551546,18.2193159 35.8199195,29.2545509 35.8199195,42.8672032 C35.8199195,56.4798555 46.8551546,67.5150905 60.4678068,67.5150905 L60.4678068,70.9356137 Z" id="Path" fill="#00B5DF"></path>
                <path d="M60.4612676,78.4225352 C41.0146215,78.4225352 25.25,62.6579137 25.25,43.2112676 C25.25,23.7646215 41.0146215,8 60.4612676,8 L60.4612676,11.2193159 C49.0675862,11.2193157 38.5393904,17.2977723 32.8425496,27.1649898 C27.1457089,37.0322073 27.1457089,49.1891207 32.8425496,59.0563382 C38.5393904,68.9235557 49.0675862,75.0020122 60.4612676,75.0020121 L60.4612676,78.4225352 Z" id="®" fill="#008BCD"></path>
                <path d="M60.4547284,84.9094567 C37.0076293,84.9094567 18,65.9018274 18,42.4547284 C18,19.0076293 37.0076293,-1.80053424e-12 60.4547284,-1.80477855e-12 L60.4547284,3.2193159 C38.8411703,3.2193159 21.3199195,20.7405666 21.3199195,42.3541247 C21.3199195,63.9676829 38.8411703,81.4889336 60.4547284,81.4889336 L60.4547284,84.9094567 Z" id="Path" fill="#0055AD"></path>
                <path d="M0.5,63.5174849 L0.5,60.298169 C10.1121994,60.298169 17.9044266,52.5059418 17.9044266,42.8937425 C17.9044266,33.2815431 10.1121994,25.4893159 0.5,25.4893159 L0.5,22.27 C11.8901784,22.27 21.1237425,31.503564 21.1237425,42.8937425 C21.1237425,54.2839209 11.8901784,63.5174849 0.5,63.5174849 Z" id="Path-Copy" fill="#D0DF00" style="mix-blend-mode: multiply;"></path>
                <path d="M0.5,70.7856137 L0.5,67.3650905 C14.1126523,67.3650905 25.1478873,56.3298555 25.1478873,42.7172032 C25.1478873,29.1045509 14.1126523,18.0693159 0.5,18.0693159 L0.5,14.85 C15.9461932,14.85 28.4678068,27.3716136 28.4678068,42.8178068 C28.4678068,58.264 15.9461932,70.7856137 0.5,70.7856137 Z" id="Path-Copy-2" fill="#8BC400" style="mix-blend-mode: multiply;"></path>
                <path d="M0.5,78.0325352 L0.5,74.6120121 C11.8936814,74.6120122 22.4218773,68.5335557 28.118718,58.6663382 C33.8155588,48.7991207 33.8155588,36.6422073 28.118718,26.7749898 C22.4218773,16.9077723 11.8936814,10.8293157 0.5,10.8293159 L0.5,7.61 C19.9466461,7.61 35.7112676,23.3746215 35.7112676,42.8212676 C35.7112676,62.2679137 19.9466461,78.0325352 0.5,78.0325352 Z" id="Path-Copy-3" fill="#43B02A" style="mix-blend-mode: multiply;"></path>
                <path d="M42.9547284,84.9094567 C19.5076293,84.9094567 0.5,65.9018274 0.5,42.4547284 C0.5,19.0076293 19.5076293,-1.80763966e-12 42.9547284,-1.81188398e-12 L42.9547284,3.2193159 C21.3411703,3.2193159 3.81991952,20.7405666 3.81991952,42.3541247 C3.81991952,63.9676829 21.3411703,81.4889336 42.9547284,81.4889336 L42.9547284,84.9094567 Z" id="Path-Copy-4" fill="#007A3E" style="mix-blend-mode: multiply;" transform="translate(21.727364, 42.454728) scale(-1, 1) translate(-21.727364, -42.454728) "></path>
            </g>
            <path d="M58.1495087,61.0663984 L73.6424664,42.555332 L59.3567521,25.4527163 C58.1505627,24.1624599 57.4380815,22.4881291 57.3446797,20.7243461 C57.3084943,19.1926804 57.901026,17.7129927 58.9843794,16.6296393 C60.0677328,15.5462859 61.5474204,14.9537543 63.0790861,14.9899396 C65.4000155,14.9728886 67.566455,16.1511276 68.8134926,18.1086519 L81.0871344,34.2052314 L93.5619835,18.1086519 C94.9704342,16.2977867 96.7812994,14.889336 98.8939755,14.889336 C100.392773,14.818479 101.856831,15.3549418 102.955017,16.3773911 C104.053203,17.3998404 104.692741,18.8218976 104.728986,20.3219316 C104.697887,21.8927728 104.089007,23.3970651 103.018724,24.5472837 L88.3305952,42.2535211 L103.521742,60.362173 C104.727931,61.6524294 105.440413,63.3267603 105.533814,65.0905433 C105.57,66.6222089 104.977468,68.1018966 103.894115,69.18525 C102.810761,70.2686034 101.331074,70.8611351 99.7994081,70.8249497 C97.4518567,70.8463816 95.2691013,69.6209752 94.0650016,67.6056338 L80.8859272,50.6036217 L67.7068527,67.6056338 C66.298402,69.3158954 64.4875368,70.8249497 62.2742572,70.8249497 C59.964883,70.8216074 57.8812107,69.4380024 56.9821007,67.3108397 C56.0829907,65.183677 56.5426323,62.7250631 58.1495087,61.0663984 Z" id="Path" fill="#003B7E"></path>
            <path d="M27.8678185,15.0905433 C12.4771872,15.0905433 0.000615303776,27.5671151 0.000615303776,42.9577465 L0.000615303776,44.2655936 L0.000615303776,84.5070423 C-0.0213192011,85.954469 0.543995572,87.349052 1.56759837,88.3726548 C2.59120116,89.3962576 3.98578411,89.9615723 5.43321088,89.9396378 C6.89137603,89.9666455 8.29916457,89.4062296 9.33983715,88.3844783 C10.3805097,87.3627271 10.9666602,85.9654575 10.9664101,84.5070423 L10.9664101,65.0905433 C20.6210081,72.4278083 33.9146022,72.671039 43.8311458,65.6918639 C53.7476894,58.7126888 58.0053802,46.11702 54.3571092,34.5525554 C50.7088382,22.9880909 39.9940744,15.1158204 27.8678185,15.0905433 Z M27.8678185,59.7585513 C18.5612702,59.7862906 10.9943273,52.2643443 10.9665604,42.9577961 C10.9387935,33.6512478 18.4607172,26.0842826 27.7672654,26.056488 C37.0738136,26.0286935 44.6408011,33.5505948 44.6686234,42.8571429 C44.687337,47.3279616 42.9264852,51.6225206 39.7745623,54.7933173 C36.6226393,57.9641141 32.3386693,59.7505734 27.8678185,59.7585513 Z" id="Shape" fill="#003B7E" fill-rule="nonzero"></path>
            <path d="M179.382909,0.754527163 L178.447295,0.754527163 C178.354991,0.749526939 178.281269,0.675805707 178.276269,0.583501006 C178.281269,0.491196305 178.354991,0.417475073 178.447295,0.412474849 L180.680696,0.412474849 C180.773,0.417475073 180.846722,0.491196305 180.851722,0.583501006 C180.846722,0.675805707 180.773,0.749526939 180.680696,0.754527163 L179.785324,0.754527163 L179.785324,3.48088531 C179.785324,3.58089663 179.704248,3.66197183 179.604237,3.66197183 C179.504226,3.66197183 179.423151,3.58089663 179.423151,3.48088531 L179.382909,0.754527163 Z" id="Path" fill="#0055AD"></path>
            <path d="M181.515706,0.583501006 C181.515706,0.483489683 181.596781,0.402414487 181.696792,0.402414487 C181.768105,0.401416762 181.834042,0.440203376 181.867819,0.503018109 L183.0147,2.2334004 L184.211883,0.503018109 C184.242256,0.441796002 184.304508,0.402888059 184.372849,0.402414487 L184.423151,0.402414487 C184.519213,0.407759418 184.594325,0.487290304 184.594177,0.583501006 L184.594177,3.48088531 C184.594325,3.57709601 184.519213,3.6566269 184.423151,3.66197183 C184.323301,3.65746512 184.241897,3.58034559 184.232004,3.48088531 L184.232004,1.07645875 L183.225967,2.58551308 C183.198336,2.6468538 183.137309,2.68629658 183.070032,2.68629658 C183.002755,2.68629658 182.941728,2.6468538 182.914096,2.58551308 L181.90806,1.07645875 L181.90806,3.48088531 C181.90806,3.58089663 181.826985,3.66197183 181.726973,3.66197183 C181.630911,3.6566269 181.555799,3.57709601 181.555947,3.48088531 L181.515706,0.583501006 Z" id="Path" fill="#0055AD"></path>
            <path d="M85.5136938,77.2635815 C85.2914464,77.2635815 85.1112793,77.4437486 85.1112793,77.665996 C85.1112793,77.8882434 85.2914464,78.0684105 85.5136938,78.0684105 C85.7359412,78.0684105 85.9161083,77.8882434 85.9161083,77.665996 C85.9015038,77.450087 85.7296028,77.278186 85.5136938,77.2635815 Z" id="Path" fill="#829ABF"></path>
            <g id="Group" transform="translate(86.217919, 72.434608)" fill="#829ABF">
                <path d="M4.56740443,4.40643863 C4.48927442,4.41057531 4.41638453,4.44702026 4.36619718,4.50704225 C4.01367887,4.86906987 3.53333155,5.07854464 3.02816901,5.09054326 C2.54336832,5.08279039 2.0821771,4.8798684 1.74892553,4.52768207 C1.41567395,4.17549575 1.23852217,3.70380525 1.25754527,3.2193159 C1.22706247,2.73259893 1.3986721,2.25485814 1.73189325,1.89878754 C2.0651144,1.54271694 2.53044145,1.3398454 3.01810865,1.33802817 C3.51575343,1.34830967 3.98928518,1.5543502 4.3360161,1.91146881 C4.43724498,2.00455456 4.58437801,2.02796434 4.70949795,1.97089208 C4.8346179,1.91381983 4.91339158,1.78736488 4.90945674,1.6498994 C4.90599466,1.55501771 4.86640675,1.46504519 4.79879276,1.39839034 C4.31910296,0.942639697 3.67969257,0.693378018 3.01810865,0.704225352 C2.35645178,0.706827477 1.72338865,0.974270205 1.26027252,1.44683769 C0.797156382,1.91940517 0.542556071,2.55774147 0.55331992,3.2193159 C0.550016854,4.23724247 1.16787821,5.1542408 2.1125448,5.53343795 C3.05721138,5.9126351 4.13761516,5.67733475 4.83903421,4.93963783 C4.89340333,4.87824087 4.92532537,4.80020924 4.92957746,4.71830986 C4.91355238,4.53326242 4.75278072,4.39482016 4.56740443,4.40643863 Z" id="Path"></path>
                <path d="M8.20925553,0.704225352 C7.54147259,0.698768492 6.89959883,0.962325304 6.42833648,1.43548028 C5.95707413,1.90863525 5.69609206,2.55156019 5.70422535,3.2193159 C5.69604147,3.88349809 5.95627479,4.52286951 6.42595817,4.9925529 C6.89564155,5.46223628 7.53501298,5.72246959 8.19919517,5.71428571 C8.86788391,5.71970046 9.51075792,5.45645761 9.98360777,4.98360777 C10.4564576,4.51075792 10.7197005,3.86788391 10.7142857,3.19919517 C10.7197431,2.53408029 10.4572463,1.89476507 9.98597787,1.42538927 C9.51470943,0.95601347 8.87434307,0.696091533 8.20925553,0.704225352 Z M9.97987928,3.23943662 C10.0018742,3.72281837 9.82508264,4.19414237 9.49061251,4.54381569 C9.15614238,4.89348901 8.69313718,5.09104341 8.20925553,5.09054326 C7.72445484,5.08279039 7.26326362,4.8798684 6.93001205,4.52768207 C6.59676047,4.17549575 6.41960869,3.70380525 6.43863179,3.2193159 C6.41387863,2.73597798 6.58805086,2.26357322 6.9206359,1.91198333 C7.25322093,1.56039343 7.71522845,1.3602653 8.19919517,1.35814889 C8.68666275,1.36590318 9.15041155,1.56988512 9.48554959,1.92395752 C9.82068764,2.27802991 9.99890042,2.75227857 9.97987928,3.23943662 Z" id="Shape" fill-rule="nonzero"></path>
                <path d="M17.5251509,0.704225352 C16.8186098,0.69949844 16.1677115,1.08693792 15.8350101,1.71026157 C15.5723051,1.09014371 14.9590709,0.691939694 14.2857143,0.704225352 C13.6393456,0.698008646 13.0427741,1.05052816 12.7364185,1.61971831 L12.7364185,1.12676056 C12.7391358,1.02897529 12.7021814,0.934249305 12.633964,0.86413701 C12.5657467,0.794024715 12.4720685,0.754489415 12.3742455,0.754527163 C12.1726059,0.759978859 12.0119987,0.925047313 12.0120724,1.12676056 L12.0120724,5.30181087 C12.0090868,5.40052437 12.0476938,5.49595428 12.1184766,5.56482411 C12.1892595,5.63369394 12.2857112,5.6696724 12.3843058,5.6639839 C12.4803541,5.66697939 12.5732324,5.62943468 12.6402181,5.56053509 C12.7072038,5.49163551 12.7421179,5.39773665 12.7364185,5.30181087 L12.7364185,2.87726358 C12.7000246,2.4938794 12.8245111,2.11260304 13.0801258,1.82455956 C13.3357406,1.53651607 13.699515,1.3675879 14.084507,1.35814889 C14.8490946,1.35814889 15.3219316,1.88128773 15.3219316,2.78672032 L15.3219316,5.30181087 C15.3192129,5.39692761 15.3551066,5.48909532 15.4214375,5.5573214 C15.4877684,5.62554747 15.5788887,5.66402275 15.6740443,5.6639839 C15.7709327,5.66679405 15.8646946,5.62953978 15.9332339,5.5610005 C16.0017732,5.49246122 16.0390275,5.3986993 16.0362173,5.30181087 L16.0362173,2.84708249 C15.9932608,2.46863343 16.1136253,2.08981318 16.3671441,1.80556478 C16.620663,1.52131638 16.9833062,1.35858252 17.3641851,1.35814889 C18.138833,1.35814889 18.61167,1.88128773 18.61167,2.80684105 L18.61167,5.30181087 C18.6088599,5.3986993 18.6461141,5.49246122 18.7146534,5.5610005 C18.7831927,5.62953978 18.8769546,5.66679405 18.9738431,5.6639839 C19.0689986,5.66402275 19.1601189,5.62554747 19.2264498,5.5573214 C19.2927807,5.48909532 19.3286745,5.39692761 19.3259557,5.30181087 L19.3259557,2.63581489 C19.385684,2.13063249 19.2200936,1.62476022 18.8732048,1.25267839 C18.526316,0.880596559 18.0332749,0.680003789 17.5251509,0.704225352 Z" id="Path"></path>
            </g>
        </g>
    </g>
</svg>