<?xml version="1.0" encoding="utf-8"?>
<!-- Generator: Adobe Illustrator 25.0.0, SVG Export Plug-In . SVG Version: 6.00 Build 0)  -->
<svg version="1.1" id="Layer_1" xmlns="http://www.w3.org/2000/svg" xmlns:xlink="http://www.w3.org/1999/xlink" x="0px" y="0px"
	 viewBox="0 0 929 356" style="enable-background:new 0 0 929 356;" xml:space="preserve">
<style type="text/css">
	.st0{fill:#F26521;}
	.st1{fill:#FFFFFF;}
	.st2{enable-background:new    ;}
</style>
<g id="Group_3" transform="translate(-496 -362)">
	<g id="codeadigital-black-logo" transform="translate(-5716.383 -1172.167)">
		<g id="Path_1">
			<path class="st0" d="M6474.8,1561.3c-44.6,0-80.7,36.1-80.7,80.7c0,44.6,36.1,80.7,80.7,80.7c0,0,0,0,0,0
				c44.5-0.1,80.6-36.1,80.7-80.7C6555.4,1597.5,6519.4,1561.4,6474.8,1561.3 M6474.8,1749.3c-59.3,0-107.3-48.1-107.3-107.3
				c0,0,0,0,0,0c0-59.3,48.1-107.3,107.3-107.3c59.3,0.1,107.3,48.1,107.3,107.3C6582.1,1701.3,6534.1,1749.3,6474.8,1749.3"/>
		</g>
		<g id="Path_2">
			<path class="st1" d="M6612.1,1745.8l7.4-25.8c7.3,1.8,14.9,2.7,22.4,2.7c48.2,0,87.4-36.2,87.4-80.7s-39.2-80.7-87.4-80.7
				c-1.7,0-3.4,0-5.1,0.1v49.9h-28.9v-71.8h0.1l-0.1-0.2c11.1-3.1,22.5-4.7,34-4.7c64.1,0,116.3,48.1,116.3,107.3
				s-52.2,107.3-116.3,107.3C6631.9,1749.3,6621.9,1748.1,6612.1,1745.8z"/>
		</g>
		<g id="Path_3">
			<path class="st1" d="M6786.9,1642c0-59.3,48.1-107.3,107.4-107.3c18.8,0,37.3,4.9,53.6,14.3l-13.3,23.1
				c-38.6-22.2-88-8.9-110.2,29.7c-4.8,8.3-8.1,17.4-9.6,26.9h126.5v26.7h-126.5c6.6,38.8,40.2,67.3,79.6,67.3v26.7
				C6834.9,1749.3,6786.9,1701.3,6786.9,1642z"/>
		</g>
		<g id="Path_4">
			<path class="st1" d="M7117.4,1748.4l-77.3-154.5l-77.3,154.5l-23.9-11.9l101.1-202.3l101.1,202.3L7117.4,1748.4z"/>
		</g>
		<g id="Group_1" transform="translate(6321.447 1748.833)">
			<g id="Path_5">
				<path class="st1" d="M0,0c9.4,0,18.8-1.2,28-3.6L21-29.3c-6.9,1.8-13.9,2.7-21,2.7c-45.2,0-82-36.2-82-80.7S-45.2-188,0-188
					c8.1,0,16.2,1.2,24,3.5l7.9-25.5c-10.3-3.1-21.1-4.7-31.9-4.7c-60.1,0-109.1,48.1-109.1,107.3S-60.1,0,0,0"/>
			</g>
		</g>
	</g>
	<g class="st2">
		<path class="st0" d="M1173.1,666.6c0,16.5-12.1,29.4-28.3,29.4h-23.4v-58.8h23.4C1161,637.2,1173.1,650.1,1173.1,666.6z
			 M1162,666.6c0-10.8-7.1-18.3-17.2-18.3h-11.8v36.6h11.8C1155,684.9,1162,677.4,1162,666.6z"/>
		<path class="st0" d="M1192.9,637.2V696h-11.6v-58.8H1192.9z"/>
		<path class="st0" d="M1261.6,669c0,17-12,28.2-28.9,28.2c-18.4,0-31.5-13.7-31.5-30.5c0-17.1,13.3-30.7,30.8-30.7
			c11.2,0,20.7,5.6,25.6,13.7l-9.9,5.7c-2.7-4.7-8.7-8.1-15.8-8.1c-11.2,0-19.2,8.2-19.2,19.4c0,10.9,7.8,19.2,20.1,19.2
			c9.2,0,15.1-4.5,17.1-11.2h-17.8v-10.2h29.5V669z"/>
		<path class="st0" d="M1281.4,637.2V696h-11.6v-58.8H1281.4z"/>
		<path class="st0" d="M1331.2,648.3h-15.9V696h-11.6v-47.7h-15.8v-11.1h43.3V648.3z"/>
		<path class="st0" d="M1367.7,685.4h-23.4l-3.5,10.6h-12.5l20.6-58.8h14.4l20.7,58.8h-12.6L1367.7,685.4z M1364,674.6l-8.1-24
			l-8.1,24H1364z"/>
		<path class="st0" d="M1423.5,684.9V696h-34v-58.8h11.6v47.7H1423.5z"/>
	</g>
</g>
</svg>
